<svg height="1134.324" viewBox="0 0 1039.001 1134.324" width="1039.001" xmlns="http://www.w3.org/2000/svg"><path d="m356.951 497.933.745-441.075-97.046-55.858-97.285 56.454-64.918 291.838-27.063 104.716 172.808 129.341 14.161 181.598 97.285-56.454.326-68.768 42.362-24.886.204-92.385-41.579-24.522z"/><path d="m258.352 765.948c-.16 0-.319-.038-.465-.115-.305-.16-.505-.465-.532-.808l-14.125-181.146-172.446-129.07c-.325-.243-.47-.658-.369-1.051l27.063-104.716 64.91-291.805c.061-.273.232-.507.474-.648l97.286-56.454c.31-.18.69-.18 1.001-.002l97.046 55.857c.311.179.501.51.501.868l-.744 440.503 41.086 24.231c.306.18.493.509.492.864l-.204 92.385c0 .354-.188.681-.494.86l-41.871 24.598-.324 68.199c-.001.355-.191.682-.498.86l-97.285 56.454c-.155.09-.329.135-.502.135zm-185.833-312.338 172.271 128.939c.23.172.375.436.398.723l14.037 180.013 95.415-55.369.324-68.195c.001-.353.189-.679.494-.858l41.869-24.597.202-91.241-41.085-24.23c-.306-.18-.493-.508-.492-.863l.744-440.496-96.044-55.281-96.407 55.944-64.823 291.41-26.903 104.1z"/><path d="m259.666 554.387.745-441.075-97.046-55.857-162.204 348.292-.161 91.837 169.137 98.116.198 117.959 88.018 51.29 1.116-117.197 41.572 23.543.204-92.385-41.579-24.522zm-89.534-50.836-87.35-51.946 86.392-190.073 1.225.576z" fill="#BE123C"/><path d="m258.352 765.948c-.174 0-.348-.045-.503-.136l-88.018-51.29c-.307-.179-.496-.507-.497-.862l-.197-117.384-168.639-97.828c-.309-.179-.499-.51-.498-.867l.161-91.837c0-.145.032-.289.094-.42l162.203-348.292c.118-.254.337-.447.604-.531s.557-.053.801.087l97.046 55.857c.311.179.501.51.501.868l-.744 440.503 41.086 24.231c.306.18.493.509.492.864l-.205 92.385c0 .355-.19.684-.498.862-.307.179-.686.181-.995.006l-40.095-22.707-1.1 115.501c-.003.356-.196.684-.506.86-.153.087-.324.131-.494.131zm-87.019-52.865 86.035 50.135 1.1-115.477c.003-.354.194-.68.5-.857.307-.177.685-.178.992-.004l40.083 22.7.199-90.101-41.085-24.23c-.306-.18-.493-.509-.492-.863l.744-440.496-95.599-55.024-161.649 347.103-.16 91.039 168.638 97.826c.308.178.498.507.498.863l.197 117.385zm-1.202-208.532c-.177 0-.354-.047-.511-.141l-87.35-51.946c-.438-.261-.61-.809-.399-1.273l86.393-190.073c.11-.243.314-.432.565-.525.251-.092.529-.08.771.033l1.226.576c.351.165.575.518.575.906l-.268 241.443c0 .359-.193.691-.506.868-.153.087-.323.131-.494.131zm-86.069-53.348 85.071 50.591.264-238.339z"/><path d="m357.696 56.857-97.286 56.455-97.046-55.858 97.286-56.454z" fill="#fff"/><path d="m260.411 114.312c-.172 0-.344-.044-.499-.133l-97.046-55.857c-.31-.178-.5-.508-.501-.865s.189-.688.498-.867l97.285-56.455c.31-.179.69-.18 1.001-.002l97.046 55.857c.309.178.5.508.501.865 0 .357-.189.688-.498.867l-97.285 56.454c-.155.09-.329.135-.502.135zm-95.048-56.861 95.046 54.706 95.289-55.296-95.046-54.706z"/><path d="m356.951 497.933-97.285 56.454.744-441.075 97.286-56.455z"/><path d="m259.665 555.387c-.172 0-.345-.045-.5-.134-.31-.179-.5-.51-.5-.868l.745-441.075c0-.356.19-.685.498-.863l97.285-56.454c.309-.18.691-.18 1.002-.001.31.179.5.51.5.868l-.745 441.075c0 .356-.19.685-.498.863l-97.285 56.454c-.155.09-.329.135-.502.135zm1.744-441.499-.741 438.761 95.283-55.292.741-438.761-95.283 55.292zm95.541 384.045h.01z"/><path d="m398.53 522.454-97.285 56.455-41.579-24.522 97.285-56.454z" fill="#fff"/><path d="m301.245 579.909c-.176 0-.351-.046-.508-.139l-41.579-24.521c-.306-.18-.494-.51-.492-.865s.191-.683.498-.862l97.285-56.454c.313-.182.698-.18 1.01.004l41.579 24.521c.306.18.494.51.492.865s-.191.683-.498.862l-97.285 56.454c-.155.09-.329.135-.502.135zm-39.599-25.514 39.603 23.356 95.301-55.303-39.603-23.356z"/><path d="m355.637 708.493-97.285 56.455 1.116-117.198 41.572 23.543 54.924-31.567z"/><path d="m258.352 765.948c-.174 0-.348-.045-.503-.136-.311-.181-.5-.514-.497-.874l1.116-117.198c.003-.354.194-.68.5-.857.308-.177.685-.178.992-.004l41.075 23.262 54.429-31.283c.311-.178.693-.177 1.001.003.309.18.499.511.497.869l-.327 68.768c-.001.355-.191.682-.498.86l-97.285 56.454c-.155.09-.329.135-.502.135zm2.1-116.491-1.083 113.745 95.271-55.286.315-66.458-53.417 30.702c-.307.176-.684.177-.991.003l-40.095-22.707zm95.185 59.037h.01z"/><path d="m398.325 614.839-97.285 56.454.205-92.384 97.285-56.455z"/><path d="m301.04 672.293c-.173 0-.345-.045-.5-.134-.31-.179-.501-.51-.5-.868l.205-92.385c0-.356.19-.684.498-.863l97.285-56.454c.31-.18.691-.18 1.002 0 .31.179.501.51.5.868l-.204 92.385c0 .356-.19.684-.498.863l-97.286 56.454c-.155.09-.329.135-.502.135zm1.203-92.808-.199 90.069 95.283-55.292.199-90.069zm96.083 35.354h.01z"/><path d="m170.557 503.928-87.776-52.324 87.464-50.265z" fill="#fff"/><path d="m170.557 504.928c-.177 0-.354-.047-.512-.141l-87.776-52.323c-.305-.182-.491-.512-.488-.867s.194-.682.502-.859l87.464-50.266c.308-.178.688-.177.998 0 .309.178.5.507.5.863l.313 102.589c0 .36-.192.693-.505.872-.153.088-.324.131-.495.131zm-85.797-53.308 84.791 50.544-.302-99.101-84.49 48.557z"/><path d="m564.522 910.072-194.905-171.121v-526.58s77.598-46.92 103.852-60.327c14.737-7.526 34.349-6.482 56.486 1.023 103.686 35.148 170.546 148.643 170.172 241.365l-1.501 371.321c.26 18.618-3.21 34.625-7.105 47.098-5.51 17.64-13.371 29.81-23.549 36.414-43.872 28.466-103.449 60.808-103.449 60.808z"/><path d="m564.523 911.072c-.238 0-.474-.085-.66-.249l-194.905-171.121c-.216-.19-.34-.464-.34-.751v-526.58c0-.35.183-.675.482-.856.776-.469 77.93-47.092 103.915-60.362 14.405-7.357 33.67-7.031 57.261.966 48.49 16.437 92.747 51.768 124.619 99.483 29.569 44.267 46.419 96.328 46.231 142.833l-1.501 371.321c.22 15.774-2.119 31.282-7.15 47.392-5.565 17.817-13.626 30.25-23.959 36.955-43.403 28.162-102.92 60.525-103.516 60.848-.15.081-.314.121-.477.121zm-193.905-172.574 194.04 170.361c6.43-3.509 61.801-33.852 102.77-60.435 9.932-6.444 17.717-18.514 23.139-35.873 4.968-15.905 7.277-31.209 7.06-46.786l1.501-371.339c.363-89.812-62.936-204.293-169.492-240.414-23.062-7.817-41.805-8.18-55.71-1.079-24.845 12.687-96.694 56.009-103.307 60.001v525.563z"/><path d="m700.129 394.433c.375-92.724-66.487-206.218-170.173-241.367-22.135-7.5-41.751-8.544-56.486-1.026-23.82 12.162-89.894 51.907-101.946 59.188 16.191-9.176 37.428-10.541 62.649-1.987 103.686 35.148 170.548 148.642 170.173 241.367l-1.502 371.318c.256 18.618-3.214 34.626-7.107 47.099-6.145 19.671-15.715 31.805-26.979 38.72 14.36-7.885 62.338-34.553 99.217-58.483 10.175-6.603 20.704-18.724 26.217-36.363 3.892-12.473 4.691-28.531 4.435-47.149l1.502-371.318z" fill="#fff"/><path d="m568.759 908.744c-.345 0-.68-.179-.866-.498-.272-.469-.121-1.071.342-1.355 12.007-7.37 20.939-20.211 26.548-38.166 4.966-15.914 7.275-31.218 7.061-46.788l1.502-371.335c.364-89.812-62.936-204.294-169.494-240.416-23.928-8.115-45.311-7.455-61.835 1.91-.477.27-1.08.107-1.356-.365s-.122-1.078.346-1.361c3.116-1.883 76.611-46.255 102.009-59.222 14.405-7.351 33.671-7.024 57.262.969 48.49 16.438 92.748 51.768 124.62 99.484 29.569 44.268 46.42 96.328 46.231 142.834l-1.502 371.318c.307 22.203-1.033 36.397-4.48 47.442-4.89 15.645-14.595 29.095-26.627 36.904-37.251 24.171-85.408 50.903-99.28 58.52-.153.084-.318.124-.48.124zm-166.297-706.192c9.982 0 20.736 1.911 32.032 5.742 48.49 16.437 92.748 51.768 124.62 99.484 29.569 44.268 46.42 96.328 46.231 142.834l-1.502 371.318c.217 15.766-2.122 31.274-7.152 47.393-4.173 13.36-10.168 23.979-17.886 31.718 20.268-11.297 58.117-32.821 88.625-52.617 11.647-7.559 21.054-20.615 25.807-35.822 3.38-10.832 4.693-24.839 4.389-46.837l1.502-371.335c.364-89.812-62.936-204.294-169.494-240.416-23.061-7.814-41.804-8.178-55.71-1.082-19.565 9.99-67.82 38.708-90.216 52.136 5.867-1.677 12.141-2.515 18.754-2.515z"/><path d="m604.346 450.607-1.502 371.318c.256 18.618-3.214 34.626-7.107 47.099-6.145 19.671-15.715 31.805-26.979 38.72 14.36-7.885 62.338-34.553 99.217-58.483 10.175-6.603 20.704-18.724 26.217-36.363 3.892-12.473 4.691-28.531 4.435-47.149l1.502-371.318-95.783 56.175z"/><path d="m568.759 908.744c-.345 0-.68-.179-.866-.498-.272-.469-.121-1.071.342-1.355 12.007-7.37 20.939-20.211 26.548-38.166 4.966-15.914 7.275-31.218 7.061-46.787l1.502-371.336c.001-.353.189-.68.494-.858l95.783-56.175c.31-.182.693-.183 1.005-.004.311.179.502.511.501.871l-1.502 371.318c.307 22.203-1.033 36.397-4.48 47.442-4.89 15.645-14.595 29.095-26.627 36.904-37.251 24.171-85.408 50.903-99.28 58.52-.153.084-.318.124-.48.124zm36.584-457.563-1.5 370.748c.217 15.766-2.122 31.274-7.152 47.393-4.173 13.36-10.168 23.979-17.886 31.718 20.268-11.297 58.117-32.821 88.625-52.617 11.647-7.559 21.054-20.615 25.807-35.822 3.38-10.832 4.693-24.839 4.389-46.836l1.495-369.582-93.778 54.999z"/><path d="m604.345 450.605c.375-92.722-66.486-206.218-170.171-241.365-61.021-20.685-98.726 16.633-98.03 82.386l-.696 370.863c0 87.975 48.426 176.381 127.374 225.61 2.785 1.737 104.511 71.864 132.916-19.076 3.896-12.472 7.365-28.479 7.105-47.098l1.502-371.321zm-91.238 327.163c-4.25 59.272-58.95 12.482-68.257 1.14-25.359-30.904-21.505-70.595-21.505-131.077l.639-274.765c-.224-45.205 5.73-71.228 38.046-56.389 37.426 17.185 52.433 45.405 52.312 109.151l-.007 318.976c.084 12.8-.609 24.321-1.229 32.965z" fill="#BE123C"/><path d="m538.921 916.559c-31.726 0-65.112-20.039-76.172-27.313-.228-.149-.381-.251-.458-.298-38.61-24.076-70.989-58.183-93.636-98.635-22.38-39.975-34.209-84.176-34.209-127.824l.696-370.865c-.377-35.63 10.47-63.273 30.543-77.826 17.727-12.852 41.519-14.756 68.808-5.505 48.489 16.437 92.747 51.768 124.619 99.483 29.569 44.267 46.419 96.328 46.231 142.833l-1.502 371.321c.221 15.773-2.118 31.281-7.15 47.392-7.149 22.887-19.581 37.638-36.951 43.844-6.674 2.385-13.708 3.393-20.82 3.393zm-136.487-712.03c-13.555 0-25.577 3.642-35.573 10.889-19.534 14.161-30.087 41.222-29.717 76.198l-.696 370.876c0 88.465 49.813 176.689 126.903 224.759.083.052.25.162.498.325 13.343 8.775 59.643 36.417 95.22 23.707 16.747-5.984 28.764-20.302 35.715-42.557 4.968-15.906 7.277-31.21 7.06-46.786l1.502-371.339 1 .004-1-.004c.363-89.812-62.936-204.293-169.492-240.414-11.143-3.777-21.677-5.658-31.419-5.658zm90.04 603.628c-18.525 0-42.819-21.817-48.396-28.614-22.514-27.436-22.232-62.324-21.843-110.612.054-6.77.111-13.769.111-21.1l.639-274.767c-.128-25.93 1.443-51.021 13.706-58.927 6.216-4.007 14.64-3.473 25.758 1.632 38.677 17.76 53.013 47.59 52.895 110.062l-.007 318.974c.084 12.898-.614 24.431-1.231 33.036l-.998-.072.998.072c-1.191 16.614-6.45 26.517-15.63 29.435-1.903.605-3.916.882-6 .882zm-46.221-494.667c-3.258 0-6.072.777-8.479 2.329-11.483 7.403-12.909 33.092-12.79 57.244l-.639 274.772c0 7.336-.057 14.34-.111 21.114-.386 47.867-.665 82.451 21.389 109.327 5.426 6.613 28.999 27.911 46.668 27.913 1.941 0 3.81-.257 5.577-.818 8.323-2.646 13.114-11.956 14.241-27.672.615-8.569 1.31-20.051 1.226-32.886l.007-318.982c.116-61.537-13.904-90.873-51.73-108.242-5.952-2.733-11.045-4.097-15.36-4.097z"/><path d="m996.422 866.309.745-441.075-97.046-55.857-97.285 56.454-64.918 291.838-27.063 104.716 172.808 129.341 14.161 181.598 97.285-56.454.326-68.768 42.362-24.886.204-92.385z"/><path d="m897.823 1134.324c-.16 0-.319-.038-.465-.115-.305-.16-.505-.465-.532-.808l-14.125-181.146-172.445-129.07c-.325-.243-.471-.658-.369-1.051l27.063-104.716 64.911-291.805c.061-.273.232-.507.474-.648l97.285-56.454c.309-.18.69-.18 1.001-.002l97.046 55.857c.311.179.501.51.501.868l-.744 440.503 41.085 24.231c.306.18.493.509.492.864l-.204 92.385c0 .354-.188.681-.494.86l-41.871 24.598-.324 68.199c-.001.355-.191.682-.498.86l-97.285 56.454c-.155.09-.329.135-.502.135zm-185.833-312.338 172.271 128.939c.23.172.375.436.398.723l14.037 180.012 95.415-55.368.324-68.195c.001-.353.189-.679.494-.858l41.869-24.597.202-91.241-41.085-24.23c-.306-.18-.493-.508-.492-.863l.744-440.496-96.043-55.28-96.406 55.944-64.823 291.41-26.903 104.1z"/><path d="m899.137 922.764.745-441.075-97.046-55.857-162.203 348.293-.161 91.837 169.137 98.116.198 117.959 88.018 51.29 1.116-117.197 41.572 23.543.204-92.385-41.579-24.522zm-89.534-50.836-87.35-51.946 86.392-190.073 1.225.576z" fill="#BE123C"/><path d="m897.823 1134.324c-.174 0-.348-.045-.503-.136l-88.018-51.29c-.307-.179-.496-.507-.497-.862l-.197-117.384-168.64-97.827c-.309-.179-.499-.51-.498-.867l.161-91.837c0-.145.032-.289.094-.42l162.203-348.292c.119-.254.338-.447.605-.531.267-.085.558-.053.801.087l97.046 55.857c.311.179.501.51.501.868l-.744 440.503 41.086 24.231c.306.18.493.509.492.864l-.204 92.385c0 .355-.19.684-.498.862-.307.179-.686.181-.995.006l-40.096-22.707-1.1 115.5c-.003.356-.196.684-.506.86-.153.087-.324.13-.494.13zm-87.019-52.865 86.035 50.135 1.1-115.476c.003-.354.194-.68.5-.857.308-.177.685-.178.992-.004l40.083 22.7.199-90.101-41.085-24.231c-.306-.18-.493-.509-.492-.863l.744-440.496-95.599-55.024-161.65 347.104-.16 91.039 168.638 97.826c.308.179.498.507.498.863zm-1.202-208.532c-.177 0-.354-.047-.511-.14l-87.35-51.946c-.438-.261-.61-.809-.399-1.273l86.393-190.073c.11-.243.314-.433.565-.525.252-.092.529-.08.771.033l1.225.576c.351.165.575.518.574.906l-.268 241.443c0 .359-.194.691-.506.868-.153.087-.324.13-.494.13zm-86.069-53.348 85.071 50.591.264-238.338z"/><path d="m997.167 425.234-97.285 56.454-97.046-55.857 97.285-56.454z" fill="#fff"/><path d="m899.882 482.688c-.172 0-.344-.044-.499-.133l-97.046-55.857c-.309-.178-.5-.508-.501-.865 0-.357.189-.688.498-.867l97.285-56.454c.309-.18.69-.18 1.001-.002l97.046 55.857c.309.178.5.508.501.865s-.189.688-.498.867l-97.285 56.454c-.155.09-.329.135-.502.135zm-95.047-56.861 95.045 54.706 95.289-55.296-95.045-54.706z"/><path d="m996.422 866.309-97.285 56.455.745-441.076 97.285-56.454z"/><path d="m899.137 923.764c-.172 0-.345-.045-.5-.134-.31-.179-.5-.51-.5-.868l.745-441.075c0-.356.19-.685.498-.863l97.285-56.454c.31-.18.691-.18 1.002-.001.31.179.5.51.5.868l-.745 441.075c0 .356-.19.685-.498.863l-97.286 56.454c-.155.09-.329.135-.502.135zm1.744-441.499-.741 438.76 95.284-55.292.741-438.761-95.283 55.292zm95.542 384.045h.01z"/><path d="m1038.001 890.831-97.285 56.454-41.579-24.521 97.285-56.455z" fill="#fff"/><path d="m940.716 948.285c-.176 0-.351-.046-.508-.139l-41.579-24.522c-.306-.18-.494-.51-.492-.865s.191-.683.498-.862l97.286-56.454c.313-.182.698-.18 1.01.004l41.579 24.521c.306.18.494.51.492.865s-.191.683-.498.862l-97.285 56.454c-.155.09-.329.135-.502.135zm-39.599-25.515 39.603 23.356 95.301-55.303-39.602-23.356-95.301 55.303z"/><path d="m995.109 1076.87-97.286 56.454 1.117-117.197 41.571 23.543 54.924-31.568z"/><path d="m897.823 1134.324c-.174 0-.348-.045-.503-.136-.311-.181-.5-.515-.497-.874l1.116-117.197c.003-.354.194-.68.5-.857.308-.177.685-.178.992-.004l41.076 23.262 54.428-31.283c.311-.178.693-.177 1.001.003.309.18.499.511.497.869l-.327 68.768c-.001.355-.191.682-.498.86l-97.285 56.454c-.155.09-.329.135-.502.135zm2.1-116.491-1.083 113.745 95.271-55.285.315-66.458-53.417 30.702c-.307.176-.684.177-.991.003l-40.096-22.707zm95.185 59.037h.01z"/><path d="m1037.797 983.216-97.286 56.454.205-92.385 97.285-56.454z"/><path d="m940.512 1040.67c-.173 0-.345-.045-.5-.134-.31-.179-.501-.51-.5-.868l.204-92.385c0-.356.19-.684.498-.863l97.285-56.454c.31-.18.691-.18 1.002 0 .31.179.501.51.5.868l-.204 92.385c0 .356-.19.684-.498.863l-97.285 56.454c-.155.09-.329.135-.502.135zm1.203-92.808-.199 90.069 95.283-55.292.199-90.069zm96.083 35.354h.01z"/><path d="m810.029 872.305-87.777-52.324 87.464-50.266z" fill="#fff"/><path d="m810.029 873.305c-.177 0-.354-.047-.512-.141l-87.776-52.323c-.305-.182-.491-.512-.488-.867s.194-.682.502-.859l87.463-50.266c.308-.178.688-.177.998 0 .309.178.5.507.5.863l.313 102.589c0 .36-.192.693-.505.872-.153.088-.324.131-.495.131zm-85.797-53.308 84.792 50.544-.302-99.101-84.489 48.557z"/></svg>