<svg xmlns="http://www.w3.org/2000/svg" viewBox="0 0 3000 3000" width="3000" height="3000"><g transform="translate(433.2 606.0) rotate(23.570162707115905 1042.2 780.5999999999999) scale(2.6321106385557993 2.6332878484526985)"><svg width="791.912" height="592.871" viewBox="0 0 791.912 592.871"><path d="m175.346 77.824-97.014-66.84-4.615 19.776L170.73 97.6c.007.493.069 4.708-1.456 11.244l4.615-19.776c1.525-6.537 1.463-10.751 1.456-11.244z" fill="#E11D48"/><path d="M169.276 109.844a1 1 0 0 1-.975-1.227l.004-.02c1.219-5.231 1.409-8.927 1.426-10.472L73.15 31.584a.998.998 0 0 1-.406-1.051l4.615-19.776a1 1 0 0 1 1.541-.596l97.013 66.84a1 1 0 0 1 .433.809c.017 1.132-.041 5.307-1.482 11.486l-4.615 19.776a1 1 0 0 1-.973.772zm-94.429-79.52 96.25 66.313 1.82-7.797c1.223-5.241 1.413-8.944 1.43-10.491l-95.374-65.71z" fill="#111"/><path d="m189.571 204.803-4.615 19.776c-3.431 1.206-68.611 24.116-117.622-9.652-50.602-34.863-72.074-67.69-65.03-97.879l4.615-19.776c-7.044 30.188 14.428 63.016 65.03 97.88 49.011 33.767 114.192 10.858 117.622 9.652" fill="#E11D48"/><path d="M131.81 234.278c-20.698 0-44.301-4.236-65.043-18.527-50.603-34.864-72.62-68.149-65.436-98.93l4.615-19.776a1 1 0 0 1 1.948.455c-6.977 29.899 14.766 62.478 64.624 96.828 47.236 32.544 109.75 11.984 116.723 9.532a.999.999 0 0 1 1.305 1.171l-4.615 19.776c-.078.332-.32.603-.642.716-4.019 1.413-26.231 8.755-53.478 8.755zM4.69 111.224l-1.412 6.052c-6.977 29.899 14.766 62.478 64.624 96.828 46.233 31.854 107.109 12.83 116.206 9.712l4.081-17.488c-12.438 4.078-71.458 20.892-116.807-10.354-42.925-29.573-65.28-58.012-66.692-84.75z" fill="#111"/><path d="m777.853 542.801-4.615 19.776c2.126-9.109-1.927-19.247-11.308-25.71-12.838-8.845-30.786-7.452-40.089 3.103-2.508 2.846-4.133 6.067-4.917 9.427l4.615-19.776c.784-3.36 2.409-6.581 4.917-9.427 9.302-10.556 27.251-11.948 40.089-3.103 9.38 6.463 13.433 16.6 11.308 25.71" fill="#E11D48"/><path d="M773.239 563.578a1 1 0 0 1-.975-1.227l.002-.01c2.089-8.972-2.19-18.646-10.903-24.649-12.413-8.552-29.806-7.232-38.771 2.941-2.341 2.657-3.92 5.684-4.693 8.994a1 1 0 0 1-1.948-.455l4.615-19.776c.848-3.636 2.578-6.954 5.14-9.861 9.613-10.907 28.188-12.372 41.406-3.266 9.398 6.475 13.996 16.979 11.714 26.761l-4.61 19.759-.004.018a1 1 0 0 1-.973.772zm-30.131-33.511c6.687 0 13.559 1.96 19.39 5.978 6.396 4.406 10.569 10.68 11.863 17.32l2.518-10.791c2.094-8.975-2.185-18.653-10.901-24.659-12.413-8.552-29.806-7.232-38.771 2.941-2.341 2.657-3.92 5.683-4.693 8.994l-2.52 10.797c.347-.455.713-.9 1.097-1.337 5.372-6.096 13.545-9.243 22.016-9.243z" fill="#111"/><path d="M782.986 559.143c-13.365 15.166-39.063 17.317-57.676 4.843L189.571 204.803l-4.615 19.776 535.739 359.183c18.613 12.474 44.311 10.322 57.676-4.844 3.632-4.121 5.987-8.79 7.124-13.663l4.615-19.776c-1.137 4.873-3.492 9.541-7.124 13.663z" fill="#E11D48"/><path d="M747.472 592.806c-9.419 0-19.091-2.689-27.333-8.213l-535.74-359.182a1 1 0 0 1-.417-1.059l4.615-19.776a1 1 0 0 1 1.53-.603l535.739 359.183c18.113 12.14 43.4 10.043 56.369-4.674 3.441-3.904 5.762-8.355 6.9-13.229a1 1 0 0 1 1.948.455l-4.615 19.776c-1.213 5.198-3.685 9.94-7.348 14.096-7.678 8.714-19.451 13.227-31.649 13.227zM186.087 224.134l535.166 358.797c18.112 12.14 43.399 10.043 56.368-4.674 3.442-3.904 5.764-8.355 6.901-13.229l2.095-8.979a34.38 34.38 0 0 1-2.88 3.754l-.75-.661.75.661c-13.609 15.44-40.068 17.69-58.983 5.014L190.216 206.44z" fill="#111"/><path d="M78.332 10.984C110.621-8.47 154.736.406 210.01 38.489c49.011 33.767 39.817 95.252 39.334 98.488l524.85 371.539c18.23 12.909 22.15 35.468 8.792 50.626-13.365 15.166-39.063 17.318-57.676 4.844L189.571 204.803c-3.431 1.206-68.611 24.116-117.622-9.652-55.275-38.082-75.792-73.736-62.35-106.174l97.013 66.84c1.293-.272 25.858-5.449 47.471-29.974 21.607-24.518 21.279-46.844 21.262-48.019zM772.94 552.221c9.302-10.556 6.443-26.284-6.395-35.129s-30.786-7.452-40.089 3.103c-9.308 10.562-6.449 26.292 6.389 35.136 12.838 8.845 30.786 7.452 40.095-3.11" fill="#fff"/><path d="M752.086 573.03c-9.419 0-19.091-2.689-27.333-8.213L189.428 205.912c-9.053 3.109-70.929 22.525-118.047-9.938C16.045 157.85-5.052 121.722 8.675 88.594a1.001 1.001 0 0 1 1.492-.44l96.656 66.593c4.086-.932 26.556-6.921 46.511-29.564 19.697-22.351 20.964-42.781 21.013-46.833L77.765 11.807a.999.999 0 0 1 .051-1.68C110.664-9.664 155.332-.397 210.578 37.666c46.913 32.321 41.094 89.762 39.843 98.849l524.352 371.186c9.541 6.756 15.707 16.585 16.918 26.969 1.07 9.174-1.754 18.1-7.954 25.135-7.679 8.713-19.452 13.226-31.65 13.227zM189.571 203.803c.196 0 .39.058.557.169l535.74 359.183c18.112 12.141 43.4 10.042 56.369-4.674 5.82-6.604 8.472-14.978 7.468-23.58-1.146-9.821-7.01-19.141-16.087-25.568L248.766 137.794a1 1 0 0 1-.411-.965c.981-6.561 8.224-65.041-38.912-97.517-53.786-37.056-97.258-46.561-129.25-28.261L175.913 77a1 1 0 0 1 .433.809c.037 2.444-.256 24.576-21.512 48.695-21.217 24.076-45.334 29.726-48.015 30.291a1 1 0 0 1-.774-.155L10.062 90.51c-12.354 31.828 8.65 66.748 62.455 103.817 47.236 32.544 109.75 11.984 116.723 9.532a1 1 0 0 1 .332-.057zM751.665 562.13c-6.686 0-13.556-1.959-19.386-5.976-6.799-4.684-11.216-11.572-12.119-18.898-.796-6.466 1.173-12.76 5.546-17.723 9.613-10.907 28.188-12.372 41.406-3.266 6.8 4.685 11.218 11.574 12.121 18.901.796 6.463-1.172 12.754-5.542 17.713-5.375 6.099-13.552 9.248-22.026 9.248zm-3.962-49.857c-7.902 0-15.504 2.919-20.496 8.583-3.99 4.527-5.788 10.266-5.062 16.155.833 6.76 4.939 13.137 11.268 17.497 12.414 8.551 29.808 7.228 38.777-2.948l.75.661-.75-.661c3.987-4.524 5.783-10.258 5.058-16.146-.833-6.76-4.94-13.138-11.27-17.499-5.501-3.79-11.984-5.642-18.275-5.642z" fill="#111"/></svg></g><g transform="translate(1305.6 610.8) rotate(0.0 697.8 714.6) scale(2.87227277124105 2.875844875011822)"><svg width="485.887" height="496.967" viewBox="0 0 485.887 496.967"><path d="M484.684 470.452 424.355 44.66a19.418 19.418 0 0 0-1.563-5.388l-12.198-26.643a19.418 19.418 0 0 1 1.563 5.388l60.329 425.792c2.274 16.023-14.958 29.576-31.016 24.392L14.936 330.522c-5.896-1.903-10.009-5.811-12.17-10.531l12.198 26.643c2.161 4.72 6.274 8.628 12.17 10.531l426.533 137.679c16.059 5.183 33.291-8.369 31.016-24.392z" fill="#E11D48"/><path d="M460.86 496.976c-2.518 0-5.043-.388-7.5-1.181L26.827 358.116c-5.831-1.882-10.366-5.812-12.772-11.066L1.857 320.406a1 1 0 0 1 1.819-.833c2.169 4.738 6.278 8.288 11.568 9.996l426.534 137.679c7.527 2.431 15.783.716 22.082-4.586 5.757-4.847 8.611-11.842 7.637-18.713L411.166 18.156a18.437 18.437 0 0 0-1.47-5.087l-.012-.025a1.002 1.002 0 0 1 .493-1.326.998.998 0 0 1 1.325.493l12.197 26.644a20.46 20.46 0 0 1 1.645 5.665l60.33 425.791c1.072 7.559-2.041 15.231-8.329 20.525-4.781 4.025-10.609 6.141-16.485 6.141zM7.302 327.495l8.572 18.722c2.169 4.738 6.278 8.288 11.568 9.996l426.534 137.679c7.526 2.43 15.783.716 22.082-4.586 5.757-4.847 8.611-11.843 7.637-18.714L423.365 44.8a18.473 18.473 0 0 0-1.482-5.112l-8.175-17.857 59.77 421.838c1.072 7.558-2.042 15.23-8.329 20.524-6.83 5.749-15.793 7.603-23.985 4.959L14.63 331.473c-2.763-.892-5.235-2.244-7.328-3.978z" fill="#111"/><path d="M472.486 443.808c2.274 16.023-14.958 29.576-31.016 24.392L14.936 330.522c-16.047-5.18-18.889-25.212-5.104-36.051L376.035 6.356c6.893-5.421 15.357-6.51 22.382-4.243 7.024 2.267 12.609 7.892 13.74 15.902l60.329 425.792z" fill="#fff"/><path d="M448.662 470.333c-2.518 0-5.043-.388-7.5-1.181L14.63 331.473c-7.606-2.455-12.953-8.425-14.303-15.969-1.457-8.141 1.865-16.298 8.887-21.82L375.417 5.57c6.734-5.295 15.444-6.945 23.308-4.408 7.913 2.555 13.305 8.803 14.422 16.714l60.33 425.792c1.072 7.558-2.041 15.23-8.328 20.524-4.781 4.025-10.61 6.142-16.486 6.142zM391.274 1.993c-5.164 0-10.325 1.771-14.62 5.149L10.45 295.256c-6.431 5.057-9.479 12.495-8.155 19.896 1.218 6.804 6.058 12.194 12.948 14.418l426.534 137.679c7.527 2.43 15.784.716 22.083-4.587 5.757-4.847 8.611-11.842 7.636-18.713s-60.33-425.793-60.33-425.793c-1.007-7.136-5.888-12.777-13.057-15.091a22.237 22.237 0 0 0-6.836-1.072z" fill="#111"/><path d="m372.08 124.481-73.498 160.776-38.094-12.296 65.737-163.281z" fill="#E11D48"/><path d="M298.582 286.257c-.102 0-.205-.016-.308-.048l-38.094-12.296a.998.998 0 0 1-.62-1.325l65.736-163.281a.998.998 0 0 1 1.235-.578l45.854 14.801a1 1 0 0 1 .601 1.367l-73.497 160.776a1 1 0 0 1-.909.584zm-36.766-13.918 36.226 11.693 72.66-158.944-43.897-14.17-64.988 161.421z" fill="#111"/><path d="m281.578 323.673-15.773 36.81-38.093-12.296 15.772-36.81z" fill="#E11D48"/><path d="M265.806 361.483c-.102 0-.205-.016-.308-.048l-38.094-12.296a1 1 0 0 1-.612-1.346l15.771-36.811a.998.998 0 0 1 1.227-.558l38.094 12.296a1 1 0 0 1 .612 1.346l-15.771 36.811a1 1 0 0 1-.919.606zm-36.742-13.911 36.182 11.679 14.98-34.964-36.182-11.679z" fill="#111"/></svg></g><g transform="translate(1449.6 1803.6) rotate(8.735300032931523 -434.4 438.5999999999999) scale(-2.747584636549074 2.749196897281203)"><svg width="316.205" height="319.075" viewBox="0 0 316.205 319.075"><linearGradient id="a" gradientTransform="matrix(.9782 .2079 -.2079 .9782 1261.0021 898.5402)" gradientUnits="userSpaceOnUse" x1="-1388.059" x2="-1076.654" y1="-425.277" y2="-425.277"><stop offset=".325" stop-color="#E11D48"/><stop offset=".706" stop-color="#fff"/><stop offset=".938" stop-color="#E11D48"/></linearGradient><path d="m313.484 170.21-4.538 28.149c-5.293 32.83-22.765 63.863-51.916 86.722-64.712 50.745-162.478 41.979-218.368-19.58-30.724-33.84-42.4-76.584-35.941-116.646l4.538-28.149C.8 160.769 12.476 203.513 43.2 237.353c55.89 61.559 153.657 70.325 218.368 19.58 29.151-22.86 46.623-53.892 51.916-86.723" fill="url(#a)"/><path d="M159.527 319.005c-44.943 0-89.996-18.014-121.605-52.83C8.169 233.405-5.02 190.586 1.733 148.697l4.539-28.149a1 1 0 0 1 1.974.318c-6.657 41.285 6.353 83.498 35.693 115.815 55.457 61.081 152.808 69.814 217.012 19.465 27.794-21.796 46.097-52.355 51.54-86.055l.006-.04a1 1 0 0 1 1.974.318l-4.539 28.149c-5.516 34.214-24.085 65.235-52.286 87.351-28.41 22.279-63.232 33.136-98.119 33.136zM4.549 143.794l-.842 5.221c-6.656 41.285 6.354 83.498 35.694 115.815 55.455 61.08 152.808 69.814 217.011 19.465 27.805-21.803 46.11-52.379 51.546-86.095l.857-5.318c-8.69 25.191-24.765 47.69-46.63 64.837-65.012 50.979-163.58 42.146-219.727-19.694-24.254-26.715-37.502-60.106-37.909-94.231z" fill="#111"/><path d="M277.552 53.581c55.89 61.559 48.738 152.599-15.984 203.352-64.711 50.745-162.478 41.979-218.368-19.58C-12.699 175.784-5.547 84.744 59.164 33.999c64.722-50.753 162.489-41.987 218.388 19.582z" fill="#fff"/><g fill="#111"><path d="M164.066 290.855c-44.943 0-89.997-18.014-121.606-52.829-27.436-30.218-40.73-68.323-37.438-107.293C8.264 92.37 27.273 57.736 58.547 33.212c65.017-50.984 163.594-42.149 219.745 19.696 27.43 30.212 40.722 68.31 37.429 107.277-3.242 38.367-22.255 73.005-53.535 97.535-28.411 22.279-63.234 33.135-98.12 33.135zM156.684 2.063c-34.459 0-68.842 10.719-96.902 32.723-30.833 24.178-49.573 58.312-52.767 96.115-3.246 38.411 9.867 75.978 36.925 105.78 55.457 61.081 152.808 69.814 217.012 19.465 30.839-24.183 49.582-58.323 52.777-96.129 3.245-38.407-9.865-75.968-36.917-105.764-31.224-34.391-75.737-52.19-120.128-52.19z"/><path d="M184.362 61.928c-6.658-7.334-21.612-5.798-33.391 3.439s-15.924 22.678-9.266 30.012 21.603 5.788 33.382-3.449c11.779-9.238 15.933-22.669 9.275-30.002"/><path d="M153.805 100.975c-5.233 0-9.832-1.611-12.84-4.924-2.568-2.829-3.734-6.581-3.373-10.851.602-7.117 5.372-14.826 12.762-20.621 12.165-9.539 27.754-11.031 34.749-3.324 2.565 2.826 3.731 6.574 3.371 10.839-.602 7.114-5.375 14.823-12.77 20.622-6.929 5.434-14.97 8.258-21.899 8.259zm18.447-42.699c-6.459 0-14.069 2.706-20.664 7.878-6.961 5.458-11.448 12.641-12.004 19.215-.312 3.702.677 6.931 2.861 9.337 6.303 6.941 20.669 5.341 32.024-3.564 6.966-5.462 11.456-12.646 12.011-19.216.312-3.697-.676-6.922-2.858-9.326-2.644-2.913-6.707-4.324-11.37-4.324zm80.762 79.267c-6.658-7.334-21.603-5.788-33.382 3.449s-15.933 22.668-9.275 30.001c6.658 7.334 21.603 5.788 33.382-3.449s15.933-22.667 9.275-30.001"/><path d="M222.456 176.59c-5.233 0-9.832-1.61-12.84-4.924-2.565-2.826-3.731-6.574-3.371-10.839.602-7.114 5.375-14.823 12.77-20.622 12.163-9.539 27.749-11.035 34.739-3.334 2.565 2.826 3.731 6.574 3.371 10.839-.602 7.114-5.375 14.823-12.77 20.622-6.929 5.433-14.97 8.258-21.899 8.258zm18.461-42.692c-6.458 0-14.069 2.707-20.668 7.882-6.966 5.462-11.456 12.646-12.011 19.216-.312 3.697.676 6.922 2.858 9.326 6.302 6.94 20.665 5.343 32.024-3.564 6.966-5.462 11.456-12.646 12.011-19.216.312-3.697-.676-6.922-2.858-9.326-2.64-2.909-6.698-4.318-11.356-4.318zm-98.826 27.05c-21.765-23.952-52.922-35.762-82.125-33.381-4.241.346-7.289 3.849-6.811 7.807.175 1.505.835 2.863 1.82 3.948 1.604 1.767 4.069 2.811 6.697 2.597 23.831-1.971 50.197 7.754 68.735 28.192l.03.033c17.791 19.596 23.916 44.126 18.986 65.076-.537 2.29.171 4.591 1.706 6.282a8.034 8.034 0 0 0 4.193 2.417c4.16.934 8.274-1.436 9.19-5.306 5.998-25.599-1.54-54.645-22.421-77.665"/><path d="M157.135 245.121c-.67 0-1.351-.073-2.032-.227-1.849-.418-3.479-1.359-4.714-2.721-1.803-1.985-2.528-4.67-1.94-7.182 5.094-21.642-1.917-45.632-18.752-64.175-17.457-19.245-43.47-29.923-67.943-27.9-2.836.235-5.649-.86-7.519-2.922-1.163-1.28-1.88-2.837-2.073-4.504-.254-2.099.352-4.171 1.706-5.83 1.444-1.769 3.638-2.895 6.018-3.089 30.498-2.491 61.508 10.113 82.946 33.705 20.435 22.526 28.903 51.896 22.654 78.565-.888 3.752-4.419 6.28-8.351 6.28zM67.693 140.672c23.218 0 47.06 10.692 63.454 28.767 17.309 19.063 24.493 43.728 19.249 66.01-.444 1.898.093 3.859 1.474 5.38.959 1.057 2.229 1.788 3.673 2.114 3.618.813 7.208-1.232 7.997-4.561 6.098-26.026-2.197-54.723-22.188-76.763-21.024-23.135-51.419-35.497-81.304-33.056-1.868.152-3.512.991-4.631 2.36a5.713 5.713 0 0 0-1.269 4.33c.146 1.253.688 2.426 1.567 3.395 1.456 1.605 3.652 2.455 5.875 2.273a74.735 74.735 0 0 1 6.103-.249z"/></g></svg></g><g transform="translate(837.5999999999999 1021.1999999999999) rotate(-12.752486305246197 -272.4 298.8) scale(-2.530693014116696 2.521540266162584)"><svg width="215.277" height="236.998" viewBox="0 0 215.277 236.998"><path d="M135.252 17.667c-.16-1.145-.714-2.076-1.517-2.672L115.873 1.728c.803.597 1.357 1.527 1.517 2.673l2.845 21.058 17.862 13.266z" fill="#fff"/><path d="M138.097 39.725a.998.998 0 0 1-.596-.197l-17.862-13.266a1.002 1.002 0 0 1-.395-.669l-2.845-21.058c-.117-.84-.516-1.554-1.122-2.004a1 1 0 1 1 1.195-1.604l17.859 13.265c1.04.772 1.718 1.957 1.911 3.336l.001.005 2.845 21.058a1 1 0 0 1-.991 1.134zm-16.928-14.817 15.619 11.6-2.527-18.704c-.119-.844-.517-1.556-1.123-2.005L118.466 4.9z" fill="#111"/><path d="m39.468 182.246-19.672 11.547c-.95.549-1.949.776-2.87.702a3.775 3.775 0 0 1-1.967-.723l17.862 13.267c.566.42 1.242.664 1.967.723.922.074 1.921-.153 2.87-.703l19.673-11.547z" fill="#fff"/><path d="M35.131 208.775c-.142 0-.283-.005-.424-.017a4.808 4.808 0 0 1-2.483-.917l-17.858-13.264-.003-.002a1 1 0 0 1 1.192-1.606c.407.302.909.485 1.45.529.749.06 1.541-.138 2.29-.571l19.666-11.543a.997.997 0 0 1 1.102.06l17.862 13.266a1.001 1.001 0 0 1-.09 1.665l-19.672 11.547c-.972.562-2.011.853-3.032.853zm-16.415-13.458 14.701 10.919c.406.302.908.485 1.452.529.747.056 1.539-.138 2.288-.572l18.364-10.779-16.118-11.971-19.101 11.211a6.48 6.48 0 0 1-1.586.663z" fill="#111"/><path d="m123.737 78.15 17.862 13.267c-4.345-3.227-9.618-5.233-15.457-5.702-4.067-.326-8.411.092-12.904 1.363-17.519 4.964-31.851 22.254-33.81 40.81-1.434 13.471 3.527 24.604 12.102 30.973l-17.862-13.267c-8.576-6.369-13.536-17.502-12.102-30.973 1.959-18.555 16.292-35.845 33.81-40.81 4.493-1.271 8.838-1.69 12.904-1.363 5.839.469 11.112 2.475 15.457 5.702" fill="#fff"/><path d="M91.529 159.861a.995.995 0 0 1-.595-.197l-.017-.012-17.845-13.254c-9.361-6.953-13.917-18.573-12.5-31.882 2.011-19.042 16.533-36.565 34.532-41.666 4.499-1.273 8.96-1.743 13.257-1.398 5.894.474 11.417 2.512 15.973 5.896l17.849 13.257.013.01a1 1 0 0 1-1.192 1.606l-.006-.004c-4.254-3.157-9.418-5.061-14.935-5.504-4.059-.323-8.283.122-12.552 1.329-17.244 4.886-31.159 21.689-33.088 39.952-1.34 12.587 2.926 23.545 11.704 30.065a1 1 0 0 1-.598 1.802zm14.079-86.519c-3.253 0-6.593.479-9.96 1.432-17.244 4.886-31.159 21.689-33.088 39.952-1.34 12.587 2.926 23.545 11.704 30.065l9.16 6.804c-4.167-6.543-5.952-14.79-4.991-23.813 2.011-19.042 16.534-36.565 34.532-41.666 4.499-1.272 8.957-1.746 13.257-1.398 2.111.169 4.175.54 6.164 1.101l-9.245-6.866c-4.255-3.16-9.421-5.064-14.941-5.508a32.286 32.286 0 0 0-2.592-.103z" fill="#111"/><path d="m77.175 198.271 17.862 13.267c-12.563-1.088-23.916-5.461-33.295-12.427L43.88 185.844c9.379 6.966 20.733 11.339 33.295 12.427" fill="#fff"/><path d="M95.038 212.537a.844.844 0 0 1-.087-.004c-12.451-1.078-24.14-5.442-33.805-12.62l-17.862-13.267a1 1 0 0 1 1.192-1.606l.02.015c9.363 6.948 20.692 11.173 32.765 12.219.185.016.361.083.51.193l17.862 13.267a1 1 0 0 1-.595 1.803zm-37.859-18.061 5.159 3.832c8.413 6.248 18.414 10.297 29.117 11.815l-14.649-10.881c-6.846-.621-13.459-2.236-19.627-4.766z" fill="#111"/><path d="M201.266 44.276a3.69 3.69 0 0 0-.954-1.052L182.45 29.957c.372.276.695.628.954 1.053l12.411 20.611 17.862 13.267z" fill="#fff"/><path d="M213.678 65.889a.998.998 0 0 1-.596-.197L195.22 52.425a.99.99 0 0 1-.26-.287l-12.412-20.612a2.696 2.696 0 0 0-.694-.766 1 1 0 0 1 1.193-1.605l17.862 13.267a4.689 4.689 0 0 1 1.213 1.338l12.412 20.612a.998.998 0 0 1-.185 1.256.99.99 0 0 1-.671.261zm-17.107-14.952 13.638 10.129-9.799-16.272a2.704 2.704 0 0 0-.694-.767l-13.218-9.818z" fill="#111"/><path d="m194.592 58.121 17.861 13.267L195.848 88l-17.861-13.266z" fill="#fff"/><path d="M195.848 89c-.208 0-.417-.065-.596-.197l-17.861-13.267a.998.998 0 0 1-.111-1.509l16.605-16.612a.999.999 0 0 1 1.303-.096l17.862 13.267a.998.998 0 0 1 .111 1.509l-16.605 16.612a1 1 0 0 1-.708.293zm-16.335-14.379 16.239 12.062L210.928 71.5l-16.239-12.062z" fill="#111"/><path d="m195.816 51.622 17.862 13.267c1.131 1.892.624 4.666-1.225 6.499l-17.862-13.267c1.849-1.833 2.357-4.607 1.225-6.499" fill="#fff"/><path d="M212.453 72.388c-.208 0-.417-.065-.596-.197l-17.862-13.267a1 1 0 0 1-.108-1.512c1.512-1.5 1.972-3.768 1.07-5.276a1 1 0 0 1 1.455-1.316l17.862 13.267a.995.995 0 0 1 .262.29c1.382 2.312.802 5.56-1.379 7.723-.193.19-.448.288-.704.288zm-16.404-14.43 16.255 12.073c1.014-1.394 1.275-3.174.606-4.468l-15.49-11.505c-.032 1.341-.504 2.72-1.371 3.9z" fill="#111"/><path d="M177.987 74.734 195.848 88c1.852 6.927 2.81 14.39 2.702 22.33-.103 7.918-1.244 15.775-3.279 23.403l-17.862-13.267c2.035-7.628 3.177-15.485 3.279-23.403.108-7.94-.85-15.403-2.701-22.329" fill="#fff"/><path d="M195.27 134.733a.998.998 0 0 1-.596-.197l-17.861-13.267a1 1 0 0 1-.37-1.061c2.054-7.698 3.146-15.49 3.245-23.159.104-7.626-.793-15.047-2.667-22.058a1 1 0 0 1 1.562-1.061l17.861 13.267a.997.997 0 0 1 .37.544c1.921 7.188 2.842 14.792 2.735 22.602-.102 7.833-1.216 15.79-3.313 23.647a1.002 1.002 0 0 1-.966.743zm-16.722-14.666 16.126 11.978c1.815-7.232 2.782-14.534 2.875-21.729.103-7.505-.765-14.811-2.579-21.722l-15.343-11.396c1.46 6.375 2.153 13.048 2.06 19.878-.098 7.615-1.154 15.347-3.139 22.991z" fill="#111"/><path d="m110.043 218.072-25.397 4.579a4.407 4.407 0 0 1-1.175.067 3.72 3.72 0 0 1-1.939-.716l17.862 13.267c.547.407 1.21.657 1.939.716.376.03.77.01 1.175-.068l25.397-4.578z" fill="#fff"/><path d="M101.668 236.997c-.139 0-.277-.005-.415-.016a4.743 4.743 0 0 1-2.457-.911l-17.861-13.266h-.001a1 1 0 0 1 1.193-1.605l.005.003a2.73 2.73 0 0 0 1.418.518c.292.024.598.006.911-.053l25.405-4.58a.993.993 0 0 1 .773.181l17.861 13.267a1 1 0 0 1-.419 1.787l-25.396 4.578a5.365 5.365 0 0 1-1.017.097zM85.293 223.55l14.696 10.916c.402.299.894.479 1.423.522.296.023.601.006.908-.053l23.133-4.17-15.66-11.632z" fill="#111"/><path d="m118.147 190.868 17.861 13.267-3.395 22.178-17.862-13.267z" fill="#fff"/><path d="M132.613 227.313a1 1 0 0 1-.596-.197l-17.862-13.267a1 1 0 0 1-.392-.954l3.395-22.178a.998.998 0 0 1 1.585-.651l17.862 13.267a1 1 0 0 1 .392.954l-3.395 22.178a.998.998 0 0 1-.989.848zm-16.782-14.711 16.045 11.917 3.053-19.941-16.045-11.917z" fill="#111"/><path d="m114.751 213.046 17.862 13.267c-.372 2.47-2.376 4.605-4.709 5.026l-17.862-13.267c2.333-.42 4.338-2.556 4.709-5.026" fill="#fff"/><path d="M127.904 232.338a1 1 0 0 1-.596-.197l-17.862-13.267a1 1 0 0 1 .419-1.787c1.915-.344 3.59-2.146 3.897-4.19a.998.998 0 0 1 1.585-.653l17.862 13.267a1 1 0 0 1 .393.952c-.437 2.898-2.758 5.363-5.521 5.861a1.173 1.173 0 0 1-.177.014zm-15.78-13.966 16.004 11.887c1.566-.455 2.91-1.866 3.373-3.526l-16.176-12.015c-.618 1.554-1.778 2.87-3.201 3.654z" fill="#111"/><path d="m156.442 161.116 17.862 13.267c-10.426 12.762-23.59 23.189-38.295 29.752l-17.862-13.267c14.705-6.564 27.869-16.99 38.295-29.752" fill="#fff"/><path d="M136.008 205.135a1 1 0 0 1-.596-.197l-17.862-13.267a1 1 0 0 1 .188-1.716c14.263-6.367 27.379-16.558 37.929-29.472a1 1 0 0 1 1.371-.17L174.9 173.58a1.002 1.002 0 0 1 .178 1.436c-10.747 13.155-24.116 23.54-38.662 30.033a1.02 1.02 0 0 1-.408.086zm-15.907-14.061 16.032 11.908c13.758-6.246 26.428-16.051 36.729-28.424l-16.254-12.072c-10.255 12.341-22.831 22.187-36.507 28.588z" fill="#111"/><path d="m193.822 131.232 17.862 13.267c1.679 1.247 2.065 3.742.9 5.984l-17.862-13.267c1.165-2.243.779-4.737-.9-5.984" fill="#fff"/><path d="M212.584 151.483a1 1 0 0 1-.596-.197l-17.862-13.266a1 1 0 0 1-.292-1.264c.927-1.785.671-3.771-.608-4.721a1 1 0 0 1 1.192-1.606l.004.003 17.857 13.264c2.072 1.539 2.573 4.587 1.192 7.248a1 1 0 0 1-.887.539zM195.96 136.89l16.163 12.004c.35-1.438-.021-2.84-1.035-3.593l-14.705-10.922c.028.82-.11 1.675-.423 2.511z" fill="#111"/><path d="m176.478 165.672 17.861 13.267-20.035-4.557-17.862-13.266z" fill="#fff"/><path d="M194.34 179.939a.988.988 0 0 1-.222-.025l-20.036-4.557a1.001 1.001 0 0 1-.375-.172l-17.862-13.267a1 1 0 0 1 .818-1.778l20.036 4.557c.136.031.263.089.375.172l17.862 13.267a1 1 0 0 1-.596 1.803zm-19.609-6.485 15.201 3.457L176.05 166.6l-15.201-3.457z" fill="#111"/><path d="m194.722 137.216 17.862 13.267-12.991 25.212-17.861-13.267z" fill="#fff"/><path d="M199.593 176.695a1 1 0 0 1-.596-.197l-17.861-13.267a1 1 0 0 1-.293-1.261l12.99-25.211a1 1 0 0 1 1.485-.345l17.862 13.266a1 1 0 0 1 .293 1.261l-12.991 25.212a1 1 0 0 1-.889.542zm-16.583-14.563 16.234 12.058 12.062-23.41-16.234-12.057z" fill="#111"/><path d="m181.732 162.428 17.862 13.267c-1.078 2.112-3.247 3.405-5.254 3.244l-17.862-13.267c2.007.161 4.176-1.132 5.254-3.244" fill="#fff"/><path d="M194.671 179.952c-.138 0-.275-.005-.412-.017a.995.995 0 0 1-.516-.194l-17.862-13.267a1 1 0 0 1 .676-1.799c1.643.125 3.405-.979 4.284-2.702a1 1 0 0 1 1.487-.348l17.861 13.267a.998.998 0 0 1 .294 1.257c-1.166 2.287-3.51 3.803-5.812 3.803zm-15.723-13.69 15.74 11.691c1.322-.001 2.685-.775 3.576-1.999l-16.258-12.076a7.1 7.1 0 0 1-3.058 2.384z" fill="#111"/><path d="M193.661 131.119c1.815 1.204 2.263 3.785 1.062 6.098l-12.99 25.212c-1.078 2.112-3.247 3.405-5.254 3.244l-20.036-4.556c-10.426 12.762-23.59 23.189-38.295 29.752l-3.395 22.178c-.372 2.47-2.376 4.605-4.709 5.026l-25.397 4.579a4.366 4.366 0 0 1-1.175.067c-1.795-.144-3.187-1.45-3.451-3.389l-2.845-21.058c-14.604-1.265-27.574-6.969-37.707-16.025l-19.672 11.547c-.949.549-1.949.776-2.87.702-1.2-.097-2.269-.704-2.92-1.775L1.594 172.107c-1.131-1.892-.604-4.665 1.225-6.499l16.605-16.612c-1.852-6.927-2.81-14.39-2.702-22.33.103-7.918 1.238-15.753 3.274-23.381L3.75 92.611c-1.814-1.204-2.263-3.785-1.062-6.098l12.99-25.212c1.078-2.112 3.247-3.405 5.254-3.244l20.036 4.556c10.426-12.762 23.59-23.188 38.295-29.752l3.395-22.178c.372-2.47 2.397-4.604 4.729-5.024l25.376-4.58a4.428 4.428 0 0 1 1.172-.066c1.806.145 3.185 1.464 3.454 3.388l2.845 21.058c14.619 1.288 27.574 6.969 37.727 16.027l19.652-11.548c.949-.549 1.949-.776 2.87-.702 1.201.097 2.269.704 2.921 1.775l12.411 20.612c1.131 1.892.624 4.666-1.225 6.499l-16.605 16.612c1.852 6.927 2.81 14.39 2.702 22.33-.103 7.918-1.244 15.775-3.279 23.403zm-91.627 18.799c17.519-4.965 31.851-22.254 33.81-40.81 2.157-20.28-10.2-35.266-27.564-36.661-4.067-.326-8.411.092-12.904 1.363-17.519 4.964-31.851 22.254-33.81 40.81-2.16 20.288 10.186 35.274 27.541 36.669 4.074.328 8.424-.093 12.927-1.371" fill="#fff"/><path d="M83.805 223.731c-.139 0-.277-.005-.414-.017-2.287-.183-4.04-1.892-4.362-4.251l-2.738-20.27c-13.979-1.369-26.72-6.79-36.941-15.718l-19.047 11.179c-1.108.641-2.302.93-3.457.836-1.553-.125-2.9-.946-3.695-2.252L.737 172.624c-1.374-2.299-.796-5.545 1.373-7.722l16.2-16.207c-1.821-7.021-2.692-14.434-2.588-22.043.099-7.6 1.149-15.309 3.124-22.926L3.2 93.447c-2.259-1.5-2.846-4.608-1.4-7.395l12.99-25.208c1.235-2.421 3.792-3.979 6.223-3.783a.973.973 0 0 1 .142.021l19.433 4.419c10.556-12.778 23.594-22.903 37.77-29.329l3.313-21.641c.435-2.892 2.765-5.356 5.54-5.857l25.376-4.58a5.36 5.36 0 0 1 1.43-.079c2.281.183 4.035 1.889 4.364 4.245l2.739 20.275c13.997 1.391 26.745 6.812 36.96 15.719l19.027-11.182c1.109-.641 2.3-.93 3.457-.836 1.553.124 2.9.945 3.695 2.252l12.414 20.615c1.384 2.315.804 5.563-1.377 7.726L179.1 75.035c1.821 7.023 2.692 14.436 2.588 22.042-.099 7.601-1.151 15.317-3.128 22.948l15.649 10.257.004.003c2.256 1.497 2.843 4.605 1.396 7.393l-12.989 25.208c-1.235 2.421-3.793 3.979-6.224 3.783a.973.973 0 0 1-.142-.021l-19.434-4.419c-10.555 12.777-23.593 22.903-37.77 29.329l-3.313 21.641c-.436 2.896-2.757 5.361-5.52 5.858l-25.396 4.578a5.444 5.444 0 0 1-1.016.096zm-44.337-42.485a1 1 0 0 1 .667.254c10.18 9.098 23.018 14.552 37.127 15.774a1 1 0 0 1 .905.862l2.845 21.058c.197 1.448 1.17 2.417 2.54 2.526.292.021.599.005.909-.053l25.405-4.581c1.915-.344 3.59-2.146 3.897-4.19l3.396-22.181a1 1 0 0 1 .581-.762c14.263-6.367 27.379-16.558 37.929-29.472a1 1 0 0 1 .996-.342l19.961 4.54c1.631.094 3.35-1.007 4.217-2.707l12.992-25.215c.968-1.865.664-3.884-.723-4.805l-16.249-10.65a1.001 1.001 0 0 1-.418-1.094c2.054-7.698 3.146-15.49 3.245-23.159.104-7.626-.793-15.047-2.667-22.058a1 1 0 0 1 .259-.965l16.605-16.612c1.515-1.502 1.975-3.771 1.073-5.279l-12.41-20.609c-.462-.76-1.224-1.221-2.144-1.294-.745-.058-1.54.137-2.29.571L158.47 42.348a.998.998 0 0 1-1.172-.116c-10.174-9.076-23.02-14.531-37.149-15.776a1 1 0 0 1-.903-.862l-2.845-21.058c-.202-1.445-1.177-2.415-2.543-2.524a3.516 3.516 0 0 0-.908.052L87.565 6.643c-1.927.348-3.611 2.148-3.918 4.189l-3.395 22.181c-.052.336-.27.623-.581.762-14.262 6.365-27.378 16.556-37.928 29.471-.24.293-.626.425-.996.342L20.786 59.05c-1.626-.098-3.35 1.007-4.217 2.707L3.577 86.971c-.968 1.865-.663 3.886.726 4.807l16.242 10.671a1 1 0 0 1 .417 1.094c-2.051 7.685-3.141 15.469-3.24 23.136-.104 7.628.794 15.049 2.668 22.059a.998.998 0 0 1-.259.965L3.526 166.315c-1.507 1.512-1.969 3.782-1.074 5.279l12.41 20.609c.462.759 1.224 1.22 2.144 1.294.748.059 1.54-.138 2.289-.571l19.667-11.543a1 1 0 0 1 .506-.137zm52.31-28.85c-.924 0-1.841-.037-2.752-.11-8.413-.676-15.92-4.515-21.139-10.809-5.822-7.021-8.42-16.597-7.316-26.963 2.011-19.042 16.533-36.565 34.532-41.666 4.499-1.273 8.96-1.743 13.257-1.398 8.421.676 15.936 4.518 21.16 10.817 5.821 7.02 8.42 16.589 7.319 26.946-2.011 19.042-16.533 36.565-34.532 41.666-3.555 1.01-7.085 1.517-10.529 1.517zm13.83-79.054c-3.253 0-6.593.479-9.96 1.432-17.244 4.886-31.159 21.689-33.088 39.952-1.046 9.826 1.393 18.873 6.867 25.475 4.871 5.875 11.889 9.459 19.759 10.092 4.066.327 8.296-.123 12.575-1.337 17.244-4.887 31.16-21.689 33.088-39.953 1.044-9.817-1.396-18.858-6.869-25.458-4.876-5.88-11.901-9.467-19.78-10.101a32.757 32.757 0 0 0-2.592-.102z" fill="#111"/></svg></g></svg>